<svg xmlns="http://www.w3.org/2000/svg" viewBox="0 0 236.33 236.34"><defs><style>.cls-1{fill:#0474bc;}</style></defs><g id="Layer_2" data-name="Layer 2"><g id="Layer_1-2" data-name="Layer 1"><path class="cls-1" d="M118.17,236.34a118.05,118.05,0,1,1,21.69-2A118.91,118.91,0,0,1,118.17,236.34Zm0-229.06A110.9,110.9,0,0,0,97.91,227.21a112.48,112.48,0,0,0,40.62,0A110.9,110.9,0,0,0,118.17,7.28Z"/><path class="cls-1" d="M142.84,230.86l-7.28-.18a133.08,133.08,0,0,1,3.67-27.75l7.08,1.71A125.29,125.29,0,0,0,142.84,230.86Z"/><path class="cls-1" d="M151.45,188.21l-6.8-2.63a142.17,142.17,0,0,1,18.55-33.51,55.57,55.57,0,0,0,11-33.39,56.2,56.2,0,0,0-55.46-56h-.56a56.23,56.23,0,0,0-56,55.68c0,8.2,5.77,28,20,38.83,10.22,7.75,22.93,9.52,37.78,5.25l2.08,7C104.9,174.32,90,172.17,77.82,163c-17.28-13.09-23-36.16-22.93-44.67a63.32,63.32,0,1,1,114.16,38.13A134.78,134.78,0,0,0,151.45,188.21Z"/><path class="cls-1" d="M93.61,230.84a121.4,121.4,0,0,0-3.26-26.22L97.44,203a128.88,128.88,0,0,1,3.45,27.79Z"/><path class="cls-1" d="M85.32,188.41a128.66,128.66,0,0,0-7.21-15.48l6.38-3.51a136.47,136.47,0,0,1,7.63,16.36Z"/><path class="cls-1" d="M122.08,169.39l-2.14-7c5.26-1.61,11-6.83,11.15-12.45v-.21c.37-4.47,3.28-6.7,5.21-8.18a13.14,13.14,0,0,0,1.34-1.12c-.12-.65-.28-1.33-.45-2-1-4.2-2.62-11.23,4.25-15.25,2.27-1.33,5-4.48,6.71-7.05-3.84.21-9-.76-13-8.44a36.76,36.76,0,0,1-3.32-9.59,12.09,12.09,0,0,0-.94-3.13,3.15,3.15,0,0,0-1.67-.33,34.8,34.8,0,0,1-7.95-1.32c-.42-.11-.89-.24-1.29-.33a5.21,5.21,0,0,1-2.9,2.19c-3.84,1.17-9.32-2-12.25-4l-1.92-1.3.23-1.46a8.83,8.83,0,0,0-2.35.1l-.18,0c-8.12.81-14.13,4.68-18.37,11.81a11.65,11.65,0,0,0-1.38,9A12.6,12.6,0,0,0,86.51,117c2.11.8,4.74,0,7.52-.76,4.14-1.19,9.3-2.67,13.73,1.33,4.63,4.17,3.79,8.12,3.34,10.24,0,.12,0,.26-.08.39,3.15,2.56,2.48,7,1.89,10.9-.43,2.87-1,6.44.24,7.75,2.86,3.1,3.47,7.37,4,11.14l.07.52c.08.54.16,1.08.25,1.59l-7.18,1.25c-.1-.58-.19-1.18-.28-1.8L110,159c-.39-2.72-.84-5.8-2.16-7.23-3.59-3.88-2.76-9.38-2.09-13.79a22.34,22.34,0,0,0,.4-4.39c-3.15-2.51-2.47-5.74-2.13-7.33s.41-2-1.09-3.31c-1.3-1.17-3-.84-6.85.26-3.59,1-8.07,2.32-12.59.38l-.4-.2a19.94,19.94,0,0,1-9.26-12.1A19.06,19.06,0,0,1,76,96.68c5.41-9.11,13.42-14.26,23.82-15.33,4-.58,7,.1,8.88,2A6.44,6.44,0,0,1,110.25,86a21.64,21.64,0,0,0,4.12,2c2.29-3.42,6.41-2.34,8.74-1.73a27,27,0,0,0,6.35,1.09c7.45.27,8.56,5.18,9.45,9.13a29.55,29.55,0,0,0,2.66,7.81c2.72,5.17,4.93,4.83,8.26,4.3a21.22,21.22,0,0,1,2.54-.29,4.44,4.44,0,0,1,4.61,3.2c.26.87,1,3.51-3.64,9.91a30.42,30.42,0,0,1-8.21,8c-1.82,1.06-2,2.42-.83,7.3.19.83.39,1.69.54,2.52.76,4.34-2.28,6.68-4.09,8.07-1.62,1.25-2.26,1.84-2.38,2.93C138.07,159.54,129.77,167,122.08,169.39Z"/><path class="cls-1" d="M149.45,145.28s-3,10.15.82,10.48,7.23-15.53,5.16-16.22S154.49,144.82,149.45,145.28Z"/><path class="cls-1" d="M143.57,209.77h-50a12.69,12.69,0,0,1,0-25.37h50a12.69,12.69,0,1,1,0,25.37Zm-50-18.08a5.4,5.4,0,0,0,0,10.8h50a5.4,5.4,0,0,0,0-10.8Z"/><circle class="cls-1" cx="196.26" cy="80.76" r="7.64"/><circle class="cls-1" cx="186.51" cy="164.13" r="6.33"/><circle class="cls-1" cx="36.87" cy="89.98" r="12.71"/><circle class="cls-1" cx="65.09" cy="180.21" r="9.13"/><rect class="cls-1" x="96.59" y="215.37" width="24.9" height="7.28"/></g></g></svg>